<?xml version="1.0" standalone="no"?>
<!DOCTYPE svg PUBLIC "-//W3C//DTD SVG 20010904//EN"
 "http://www.w3.org/TR/2001/REC-SVG-20010904/DTD/svg10.dtd">
<svg version="1.0" xmlns="http://www.w3.org/2000/svg"
 width="512.000000pt" height="512.000000pt" viewBox="0 0 512.000000 512.000000"
 preserveAspectRatio="xMidYMid meet">

<g transform="translate(0.000000,512.000000) scale(0.100000,-0.100000)"
fill="#000000" stroke="none">
<path d="M2265 5105 c-242 -29 -509 -108 -719 -214 -111 -56 -135 -73 -161
-109 -27 -40 -30 -51 -30 -125 0 -71 4 -88 27 -128 52 -89 135 -138 231 -139
49 0 76 8 175 53 277 127 438 167 672 167 430 0 731 -185 846 -520 29 -85 27
-290 -4 -390 -48 -150 -138 -294 -275 -437 l-80 -83 -1006 0 -1006 0 -50 -24
c-66 -30 -120 -91 -139 -157 -20 -66 -20 -82 0 -148 18 -61 69 -123 128 -154
41 -22 44 -22 729 -25 l688 -3 -93 -71 c-121 -94 -281 -232 -341 -297 l-48
-51 -429 0 c-407 0 -432 -1 -484 -20 -73 -28 -129 -90 -152 -165 -36 -124 21
-245 141 -301 49 -23 57 -24 338 -24 158 0 287 -4 287 -8 0 -5 -9 -35 -20 -67
-52 -150 -77 -382 -60 -548 22 -218 86 -400 203 -575 304 -455 848 -632 1527
-495 257 51 589 173 677 247 101 85 95 239 -14 350 -52 54 -104 76 -181 76
-54 0 -82 -7 -180 -49 -213 -90 -383 -132 -600 -151 -212 -19 -393 10 -552 87
-251 121 -393 392 -378 715 6 118 44 251 101 353 l34 60 1069 5 1069 5 41 22
c79 42 144 145 144 228 0 83 -65 186 -144 228 l-41 22 -814 3 -814 2 79 59
c43 32 169 125 279 207 l200 149 535 5 c526 5 536 5 576 27 59 31 110 93 128
154 20 66 20 82 0 148 -19 66 -73 127 -139 157 -49 23 -57 24 -338 24 l-289 0
21 33 c30 44 120 223 138 272 55 151 74 255 74 419 0 299 -110 576 -317 798
-115 123 -213 197 -356 269 -248 125 -570 173 -903 134z"/>
</g>
</svg>
